<svg width="58" height="56" viewBox="0 0 58 56" fill="none" xmlns="http://www.w3.org/2000/svg">
<path d="M9 9H57L51 35H15M51 43H17L7 1H1" stroke="#1600FF" stroke-opacity="0.5" stroke-linecap="round" stroke-linejoin="round"/>
<path d="M47 55C49.2091 55 51 53.2091 51 51C51 48.7909 49.2091 47 47 47C44.7909 47 43 48.7909 43 51C43 53.2091 44.7909 55 47 55Z" stroke="#1600FF" stroke-opacity="0.5" stroke-linecap="round" stroke-linejoin="round"/>
<path d="M21 55C23.2091 55 25 53.2091 25 51C25 48.7909 23.2091 47 21 47C18.7909 47 17 48.7909 17 51C17 53.2091 18.7909 55 21 55Z" stroke="#1600FF" stroke-opacity="0.5" stroke-linecap="round" stroke-linejoin="round"/>
</svg>
